<?xml version="1.0" standalone="no"?>
<!DOCTYPE svg PUBLIC "-//W3C//DTD SVG 20010904//EN"
 "http://www.w3.org/TR/2001/REC-SVG-20010904/DTD/svg10.dtd">
<svg version="1.0" xmlns="http://www.w3.org/2000/svg"
 width="215.000000pt" height="215.000000pt" viewBox="0 0 215.000000 215.000000"
 preserveAspectRatio="xMidYMid meet">
<metadata>
Created by potrace 1.14, written by Peter Selinger 2001-2017
</metadata>
<g transform="translate(0.000000,215.000000) scale(0.100000,-0.100000)"
fill="#000000" stroke="none">
<path d="M1028 2095 c-2 -1 -34 -5 -73 -9 -96 -8 -209 -38 -300 -80 -306 -142
-521 -423 -580 -759 -11 -67 -13 -307 -2 -352 3 -11 12 -51 21 -89 9 -38 21
-75 26 -81 5 -6 11 -20 13 -31 1 -11 12 -38 24 -61 12 -22 19 -44 16 -47 -4
-3 -1 -6 5 -6 7 0 12 -8 12 -18 0 -9 9 -23 20 -30 12 -7 18 -16 15 -21 -2 -5
2 -14 10 -21 8 -7 15 -19 15 -27 0 -8 5 -11 10 -8 9 6 14 -8 11 -28 -1 -5 2
-7 6 -4 5 2 16 -4 25 -15 10 -10 15 -18 11 -18 -4 0 3 -7 15 -16 12 -8 20 -20
16 -25 -3 -5 0 -8 8 -7 7 2 12 -2 11 -9 -2 -8 4 -10 14 -6 13 5 15 2 10 -11
-4 -10 -3 -15 3 -11 6 3 13 -1 16 -9 3 -9 13 -16 21 -16 8 0 11 -4 8 -10 -3
-5 3 -10 15 -10 12 0 18 -4 15 -10 -3 -5 1 -10 9 -10 9 0 16 -4 16 -9 0 -5 13
-14 30 -21 16 -7 28 -15 26 -19 -3 -4 5 -8 17 -8 12 -1 23 -7 25 -13 2 -5 13
-10 24 -10 12 0 18 -3 15 -7 -4 -4 12 -13 35 -21 23 -8 49 -22 56 -31 7 -9 11
-10 7 -3 -8 15 11 16 20 1 4 -6 13 -8 21 -5 8 3 14 1 14 -5 0 -6 7 -9 15 -5 8
3 15 1 15 -4 0 -5 7 -6 17 -3 10 4 14 2 10 -4 -3 -5 0 -10 8 -10 8 0 11 5 8
10 -4 6 -1 7 8 1 8 -4 23 -10 34 -11 64 -9 77 -12 83 -17 3 -3 11 -1 19 5 10
9 13 8 13 -2 0 -11 2 -11 10 1 6 10 10 11 10 3 0 -9 7 -10 25 -3 17 7 25 6 25
-1 0 -8 5 -7 15 1 12 10 15 10 15 -1 0 -10 3 -10 12 -1 16 16 31 15 22 0 -5
-9 -2 -9 9 1 9 7 17 10 17 5 0 -5 5 -2 10 6 5 8 10 11 10 5 0 -5 11 -10 24
-10 13 0 22 3 20 6 -2 4 3 10 12 13 10 4 13 2 8 -7 -5 -9 -4 -9 7 1 7 6 23 12
35 12 13 0 26 5 29 11 4 6 13 8 21 5 8 -3 14 -1 14 4 0 6 5 10 11 10 5 0 7 -5
3 -11 -3 -6 5 -3 19 6 15 9 32 13 38 9 8 -4 9 -3 5 4 -4 7 4 14 21 18 15 3 33
13 40 21 6 8 23 16 37 17 13 0 24 6 23 11 -1 6 6 9 15 9 10 -1 16 2 13 6 -3 4
3 14 12 21 14 12 16 12 9 -1 -5 -8 4 -3 18 13 15 15 32 25 37 21 5 -3 8 0 7 8
-2 7 2 12 9 11 6 -2 15 6 18 17 4 11 11 18 16 15 5 -4 9 -1 9 5 0 6 5 8 12 4
7 -4 8 -3 4 4 -3 6 3 16 14 22 11 6 20 18 20 26 0 8 5 12 10 9 6 -3 10 -3 10
2 0 4 14 24 30 43 44 52 43 50 82 115 19 33 39 70 43 83 3 12 11 22 16 22 5 0
8 3 7 8 -4 17 26 91 35 85 6 -3 7 -1 3 5 -4 6 -1 31 5 54 28 99 33 142 34 273
0 191 -24 302 -101 461 -132 274 -371 467 -669 543 -55 14 -239 33 -247 26z"/>
</g>
</svg>
